<?xml version="1.0" encoding="utf-8"?>
<!-- Generator: Adobe Illustrator 24.0.3, SVG Export Plug-In . SVG Version: 6.00 Build 0)  -->
<svg version="1.1" id="レイヤー_1" xmlns="http://www.w3.org/2000/svg" xmlns:xlink="http://www.w3.org/1999/xlink" x="0px"
	 y="0px" viewBox="0 0 1480 1570.9" style="enable-background:new 0 0 1480 1570.9;" xml:space="preserve">
<style type="text/css">
	.st0{fill:none;stroke:#000000;stroke-width:5;stroke-linecap:round;stroke-linejoin:round;}
</style>
<g>
	<path d="M551,1141.2l-9.5-14.5v14.5h-3.1v-20.7h2.9l9.5,14.5v-14.5h3.1v20.7H551z"/>
	<path d="M574.3,1139.1c-1.4,1.4-3.2,2.2-5.5,2.2c-2.2,0-4-0.8-5.4-2.2c-2-2-2-4.3-2-8.3c0-4,0-6.3,2-8.3c1.4-1.4,3.2-2.2,5.4-2.2
		c2.2,0,4,0.8,5.5,2.2c2,2,2,4.3,2,8.3C576.3,1134.8,576.3,1137.1,574.3,1139.1z M571.9,1124.4c-0.7-0.8-1.9-1.3-3.1-1.3
		c-1.2,0-2.3,0.5-3.1,1.3c-1,1.1-1.2,2.3-1.2,6.4c0,4.1,0.2,5.3,1.2,6.4c0.7,0.8,1.9,1.3,3.1,1.3c1.2,0,2.3-0.5,3.1-1.3
		c1-1.1,1.2-2.3,1.2-6.4C573.1,1126.7,572.9,1125.5,571.9,1124.4z"/>
	<path d="M593.6,1141.2v-20.7h3.1v20.7H593.6z"/>
	<path d="M620.2,1141.2v-13.8l-4.8,10.1h-2.3l-4.9-10.1v13.8h-3.1v-20.7h3.1l6,12.9l5.9-12.9h3.1v20.7H620.2z"/>
	<path d="M643.4,1141.2l-1.4-4.1h-8.2l-1.4,4.1h-3.3l7.6-20.7h2.5l7.6,20.7H643.4z M638,1125.2l-3.2,9.2h6.4L638,1125.2z"/>
	<path d="M664.6,1139c-1.6,1.7-3.5,2.3-5.7,2.3c-2.1,0-4-0.8-5.4-2.2c-2-2-2-4.3-2-8.3c0-4,0-6.3,2-8.3c1.4-1.4,3.2-2.2,5.4-2.2
		c4.4,0,6.9,2.9,7.5,6.4h-3.2c-0.5-2.3-2-3.6-4.4-3.6c-1.2,0-2.3,0.5-3,1.3c-1,1.1-1.2,2.3-1.2,6.4c0,4.1,0.2,5.3,1.2,6.4
		c0.7,0.8,1.8,1.2,3,1.2c1.4,0,2.6-0.5,3.4-1.5c0.8-0.9,1-1.9,1-3.2v-1.2H659v-2.7h7.5v3.2C666.5,1135.8,666,1137.5,664.6,1139z"/>
	<path d="M674,1141.2v-20.7h13.2v2.8h-10.1v6h8.6v2.8h-8.6v6.2h10.1v2.8H674z"/>
</g>
<line class="st0" x1="669.9" y1="978.2" x2="549.9" y2="1098.2"/>
<path class="st0" d="M561.9,1084.8c-7.1,0-12.9-5.8-12.9-12.9v-65.2c0-7.1,5.8-12.9,12.9-12.9h92.2"/>
<path class="st0" d="M666.2,993.7c7.1,0,12.9,5.8,12.9,12.9v65.2c0,7.1-5.8,12.9-12.9,12.9h-88.5"/>
<path class="st0" d="M580.4,992.1l12.3-13.7c2-2.9,5.4-5.2,9.3-5.2h25.2c3.9,0,7.3,2.3,9.3,5.2l10.2,13.7"/>
<circle cx="659.3" cy="1013.3" r="5"/>
<path class="st0" d="M638.1,1025.2c2.7,4.2,4.3,9.1,4.5,14.4c0.4,15.6-11.8,28.5-27.4,29c-6.4,0.2-12.4-1.8-17.2-5.3"/>
<path class="st0" d="M590.9,1057.1c-3.5-4.7-5.5-10.5-5.5-16.8c0-15.6,12.6-28.2,28.2-28.2c5.6,0,10.8,1.6,15.2,4.4"/>
</svg>
